<svg width="200" height="200" viewBox="0 0 505 505" fill="none" xmlns="http://www.w3.org/2000/svg">
<g id="alien-svgrepo-com 1">
<g clip-path="url(#clip0)">
<g id="Group">
<path id="Vector" d="M236.064 361.913C236.064 381.416 220.247 486.581 200.728 486.581C181.233 486.581 165.424 381.408 165.424 361.913C165.424 342.418 181.241 326.593 200.728 326.593C220.247 326.593 236.064 342.418 236.064 361.913Z" fill="#057F73"/>
<path id="Vector_2" d="M354.423 361.913C354.423 381.416 338.598 486.581 319.087 486.581C299.584 486.581 283.791 381.408 283.791 361.913C283.791 342.418 299.592 326.593 319.087 326.593C338.598 326.593 354.423 342.418 354.423 361.913Z" fill="#057F73"/>
</g>
<g id="Group_2">
<path id="Vector_3" d="M359.558 315.242C359.558 441.572 314.967 399.501 259.915 399.501C204.887 399.501 160.272 441.572 160.272 315.242C160.272 243.011 204.903 184.461 259.915 184.461C314.943 184.47 359.558 243.019 359.558 315.242Z" fill="#15B78D"/>
<path id="Vector_4" d="M294.267 214.315C305.547 204.288 327.571 210.652 343.498 228.533C359.394 246.414 428.521 342.551 417.265 352.595C405.977 362.607 318.544 282.703 302.648 264.822C286.76 246.965 283.003 224.343 294.267 214.315Z" fill="#15B78D"/>
</g>
<path id="Vector_5" d="M259.915 348.31C210.361 348.31 169.275 382.346 161.579 296.921C160.736 302.025 160.271 308.059 160.271 315.251C160.271 441.581 204.886 399.51 259.914 399.51C314.966 399.51 359.557 441.581 359.557 315.251C359.557 308.059 359.092 302.026 358.249 296.921C350.555 382.346 309.485 348.31 259.915 348.31Z" fill="#089B78"/>
<path id="Vector_6" d="M240.483 487.219C240.483 502.154 222.673 504.123 200.752 504.123C178.807 504.123 161.005 502.162 161.005 487.219C161.005 472.276 178.807 451.71 200.752 451.71C222.673 451.718 240.483 472.277 240.483 487.219Z" fill="#15B78D"/>
<path id="Vector_7" d="M240.483 487.219C240.483 502.154 222.673 504.123 200.752 504.123C178.807 504.123 161.005 502.162 161.005 487.219" fill="#089B78"/>
<path id="Vector_8" d="M358.834 487.219C358.834 502.154 341.032 504.123 319.095 504.123C297.158 504.123 279.356 502.162 279.356 487.219C279.356 472.276 297.158 451.71 319.095 451.71C341.032 451.71 358.834 472.277 358.834 487.219Z" fill="#15B78D"/>
<path id="Vector_9" d="M358.834 487.219C358.834 502.154 341.032 504.123 319.095 504.123C297.158 504.123 279.356 502.162 279.356 487.219" fill="#089B78"/>
<g id="hand">
<path id="Vector_10" d="M270.384 231.219C269.486 216.158 249.408 205.083 225.525 206.462C201.642 207.864 84.788 226.974 85.631 242.026C86.537 257.095 204.864 262.411 228.739 261.009C252.598 259.623 271.242 246.28 270.384 231.219Z" fill="#15B78D"/>
</g>
<path id="Vector_11" d="M223.406 54.571C239.302 69.128 251.55 104.054 236.986 119.949C222.437 135.845 182.84 137.491 166.944 122.919C151.033 108.362 153.695 72.893 168.259 56.997C182.816 41.102 207.494 40.007 223.406 54.571Z" fill="#038462"/>
<path id="Vector_12" d="M296.417 54.571C280.521 69.128 268.265 104.054 282.829 119.949C297.386 135.845 336.983 137.491 352.871 122.919C368.79 108.362 366.128 72.893 351.571 56.997C337.007 41.102 312.336 40.007 296.417 54.571Z" fill="#038462"/>
<g id="Head">
<path id="Vector_13" d="M388.868 124.258C388.868 187.266 331.13 218.939 259.923 218.939C188.716 218.939 130.962 187.266 130.962 124.258C130.962 61.235 188.716 0 259.923 0C331.13 0 388.868 61.235 388.868 124.258Z" fill="#21CC9B"/>
<path id="Vector_14" d="M388.868 124.258C388.868 187.266 331.13 218.939 259.923 218.939C188.716 218.939 130.962 187.266 130.962 124.258C130.962 61.235 188.716 12.469 259.923 12.469C331.13 12.469 388.868 61.235 388.868 124.258Z" fill="#15B78D"/>
<path id="Vector_15" d="M388.868 124.258C388.868 187.266 331.13 218.939 259.923 218.939C188.716 218.939 130.962 187.266 130.962 124.258" fill="#089B78"/>
<g id="L-eye">
<path id="Vector_16" d="M223.406 54.571C239.302 69.128 251.55 104.054 236.986 119.949C222.437 135.845 186.574 126.7 170.686 112.135C154.775 97.578 153.703 72.9 168.26 56.997C182.816 41.102 207.494 40.007 223.406 54.571Z" fill="#243B3D"/>
<path id="Vector_17" d="M168.259 56.99C182.823 41.094 207.494 40.007 223.405 54.564C239.301 69.121 251.549 104.047 236.985 119.942" fill="#1C292B"/>
</g>
<g id="R-eye">
<path id="Vector_18" d="M296.417 54.571C280.521 69.128 268.265 104.054 282.829 119.949C297.386 135.845 333.241 126.7 349.137 112.135C365.048 97.578 366.12 72.9 351.571 56.997C337.007 41.102 312.336 40.007 296.417 54.571Z" fill="#243B3D"/>
<path id="Vector_19" d="M351.571 56.99C336.999 41.094 312.336 40.007 296.417 54.564C280.521 69.121 268.265 104.047 282.829 119.942" fill="#1C292B"/>
</g>
</g>
<g id="Group_3">
<path id="Vector_20" d="M259.915 319.322C267.567 319.322 273.77 313.119 273.77 305.467C273.77 297.815 267.567 291.612 259.915 291.612C252.263 291.612 246.06 297.815 246.06 305.467C246.06 313.119 252.263 319.322 259.915 319.322Z" fill="#057F73"/>
<path id="Vector_21" d="M267.501 247.115V235.434H252.314V247.115C223.406 250.849 201.067 275.535 201.067 305.452C201.067 335.361 223.406 360.055 252.314 363.773V375.462H267.501V363.773C296.401 360.047 318.748 335.361 318.748 305.452C318.748 275.535 296.401 250.848 267.501 247.115ZM267.501 346.655V327.703C265.114 328.522 262.562 328.971 259.908 328.971C257.254 328.971 254.701 328.514 252.315 327.703V346.655C232.796 343.079 218.011 326.01 218.011 305.459C218.011 284.908 232.804 267.831 252.315 264.263V283.215C254.702 282.396 257.254 281.939 259.908 281.939C262.562 281.939 265.115 282.404 267.501 283.215V264.263C287.012 267.831 301.805 284.908 301.805 305.459C301.813 325.994 287.012 343.079 267.501 346.655Z" fill="#057F73"/>
</g>
</g>
</g>
<defs>
<clipPath id="clip0">
<rect width="504.123" height="504.123" fill="white"/>
</clipPath>
</defs>
</svg>
